<svg width="164" height="97" viewBox="0 0 164 97" fill="none" xmlns="http://www.w3.org/2000/svg">
<path d="M0 65.9023L38.4413 32.4857L48.4935 36.3094L84.8447 0L125.526 39.6059L139.211 36.6303L163 67.2188L140.273 44.9678L125.24 47.9285L90.2827 13.5445L84.238 24.9561L94.822 38.1679L64.582 70L71.8404 46.871L37.6695 68.4955L46.4408 53.4835L38.2762 57.6865L31.6246 52.2784L0 65.9023Z" fill="white"/>
<path d="M1.472 96.3752V76.0752H6.373L15.276 88.4582V76.0752H19.945V96.3752H15.276L6.141 83.6442V96.3752H1.472Z" fill="white"/>
<path d="M33.4717 96.7232C31.3837 96.7232 29.5374 96.2786 27.9327 95.3892C26.328 94.4806 25.0714 93.2432 24.1627 91.6772C23.254 90.0919 22.7997 88.2842 22.7997 86.2542C22.7997 84.2049 23.254 82.3972 24.1627 80.8312C25.0714 79.2459 26.3184 78.0086 27.9037 77.1192C29.5084 76.2106 31.345 75.7562 33.4137 75.7562C35.4824 75.7562 37.3094 76.2106 38.8947 77.1192C40.4994 78.0086 41.756 79.2459 42.6647 80.8312C43.5734 82.3972 44.0277 84.2049 44.0277 86.2542C44.0277 88.2842 43.5734 90.0919 42.6647 91.6772C41.7754 93.2432 40.538 94.4806 38.9527 95.3892C37.3674 96.2786 35.5404 96.7232 33.4717 96.7232ZM33.4717 92.4312C34.6124 92.4312 35.6177 92.1702 36.4877 91.6482C37.3577 91.1262 38.0344 90.4012 38.5177 89.4732C39.001 88.5259 39.2427 87.4529 39.2427 86.2542C39.2427 85.0362 38.9914 83.9632 38.4887 83.0352C37.986 82.0879 37.2997 81.3532 36.4297 80.8312C35.5597 80.2899 34.5544 80.0192 33.4137 80.0192C32.273 80.0192 31.2677 80.2899 30.3977 80.8312C29.5277 81.3532 28.8414 82.0879 28.3387 83.0352C27.836 83.9632 27.5847 85.0362 27.5847 86.2542C27.5847 87.4529 27.836 88.5259 28.3387 89.4732C28.8414 90.4012 29.5374 91.1262 30.4267 91.6482C31.316 92.1702 32.331 92.4312 33.4717 92.4312Z" fill="white"/>
<path d="M46.8695 96.3752V76.0752H54.8445C56.3138 76.0752 57.6188 76.3652 58.7595 76.9452C59.9001 77.5059 60.7895 78.2986 61.4275 79.3232C62.0848 80.3286 62.4135 81.4886 62.4135 82.8032C62.4135 84.1372 62.0655 85.3262 61.3695 86.3702C60.6928 87.3949 59.7841 88.1779 58.6435 88.7192L63.2255 96.3752H57.8895L54.0035 89.5602C53.8875 89.5602 53.7618 89.5602 53.6265 89.5602C53.5105 89.5602 53.3945 89.5602 53.2785 89.5602H51.5385V96.3752H46.8695ZM51.5385 85.2682H54.6995C55.2408 85.2682 55.7241 85.1619 56.1495 84.9492C56.5748 84.7366 56.9035 84.4466 57.1355 84.0792C57.3868 83.6926 57.5125 83.2672 57.5125 82.8032C57.5125 82.0879 57.2418 81.4982 56.7005 81.0342C56.1785 80.5702 55.4825 80.3382 54.6125 80.3382H51.5385V85.2682Z" fill="white"/>
<path d="M65.8441 96.3752V76.0752H72.4851C74.6311 76.0752 76.5257 76.5102 78.1691 77.3802C79.8317 78.2502 81.1271 79.4489 82.0551 80.9762C82.9831 82.4842 83.4471 84.2339 83.4471 86.2252C83.4471 88.1972 82.9831 89.9469 82.0551 91.4742C81.1271 93.0016 79.8317 94.2002 78.1691 95.0702C76.5257 95.9402 74.6311 96.3752 72.4851 96.3752H65.8441ZM70.5131 91.9672H72.4851C73.3744 91.9672 74.1961 91.8319 74.9501 91.5612C75.7041 91.2712 76.3614 90.8749 76.9221 90.3722C77.4827 89.8502 77.9177 89.2412 78.2271 88.5452C78.5364 87.8299 78.6911 87.0566 78.6911 86.2252C78.6911 85.3939 78.5364 84.6302 78.2271 83.9342C77.9177 83.2189 77.4827 82.6099 76.9221 82.1072C76.3614 81.5852 75.7041 81.1889 74.9501 80.9182C74.1961 80.6282 73.3744 80.4832 72.4851 80.4832H70.5131V91.9672Z" fill="white"/>
<path d="M87.2193 96.3752V76.0752H98.9063V77.7572H89.0753V85.5002H97.9203V87.1822H89.0753V96.3752H87.2193Z" fill="white"/>
<path d="M102.852 96.3752V76.0752H104.708V94.6932H114.539V96.3752H102.852Z" fill="white"/>
<path d="M125.535 96.7232C123.621 96.7232 121.92 96.2786 120.431 95.3892C118.962 94.4999 117.802 93.2626 116.951 91.6772C116.12 90.0919 115.704 88.2746 115.704 86.2252C115.704 84.1566 116.12 82.3392 116.951 80.7732C117.782 79.1879 118.923 77.9506 120.373 77.0612C121.842 76.1719 123.534 75.7272 125.448 75.7272C127.362 75.7272 129.054 76.1816 130.523 77.0902C131.992 77.9796 133.133 79.2169 133.945 80.8022C134.776 82.3682 135.192 84.1759 135.192 86.2252C135.192 88.2746 134.776 90.0919 133.945 91.6772C133.133 93.2626 132.002 94.4999 130.552 95.3892C129.102 96.2786 127.43 96.7232 125.535 96.7232ZM125.535 95.0412C127.062 95.0412 128.406 94.6642 129.566 93.9102C130.745 93.1562 131.664 92.1219 132.321 90.8072C132.998 89.4732 133.336 87.9459 133.336 86.2252C133.336 84.5046 132.998 82.9869 132.321 81.6722C131.644 80.3382 130.716 79.2942 129.537 78.5402C128.358 77.7862 126.995 77.4092 125.448 77.4092C123.921 77.4092 122.558 77.7862 121.359 78.5402C120.18 79.2942 119.252 80.3382 118.575 81.6722C117.898 82.9869 117.56 84.5046 117.56 86.2252C117.56 87.9459 117.898 89.4732 118.575 90.8072C119.252 92.1219 120.189 93.1562 121.388 93.9102C122.606 94.6642 123.988 95.0412 125.535 95.0412Z" fill="white"/>
<path d="M143.068 96.3752L136.804 76.0752H138.66L144.083 93.5332L149.361 76.0752H151.217L156.379 93.5332L161.918 76.0752H163.774L157.365 96.3752H155.335L150.289 79.1782L145.098 96.3752H143.068Z" fill="white"/>
</svg>
